solid OpenSCAD_Model
  facet normal -1 -0 -0
    outer loop
      vertex -19.5 -7.25 -5.005
      vertex -19.5 -7.25 -2.495
      vertex -19.5 49.5 -5.005
    endloop
  endfacet
  facet normal -1 0 0
    outer loop
      vertex -19.5 49.5 -5.005
      vertex -19.5 -7.25 -2.495
      vertex -19.5 49.5 -2.495
    endloop
  endfacet
  facet normal 0 -1 0
    outer loop
      vertex -19.5 -7.25 -2.495
      vertex -19.5 -7.25 -5.005
      vertex 26 -7.25 -5.005
    endloop
  endfacet
  facet normal 0 -1 0
    outer loop
      vertex -14 -7.25 -2.495
      vertex -19.5 -7.25 -2.495
      vertex 26 -7.25 -5.005
    endloop
  endfacet
  facet normal 0 -1 0
    outer loop
      vertex 4 -7.25 -2.495
      vertex -14 -7.25 -2.495
      vertex 26 -7.25 -5.005
    endloop
  endfacet
  facet normal 0 -1 0
    outer loop
      vertex 26 -7.25 -2.495
      vertex 4 -7.25 -2.495
      vertex 26 -7.25 -5.005
    endloop
  endfacet
  facet normal 0 -1 0
    outer loop
      vertex 4 -7.25 0.005
      vertex -14 -7.25 -2.495
      vertex 4 -7.25 -2.495
    endloop
  endfacet
  facet normal 0 -1 0
    outer loop
      vertex -14 -7.25 0.005
      vertex -14 -7.25 -2.495
      vertex 4 -7.25 0.005
    endloop
  endfacet
  facet normal 0 -0 -1
    outer loop
      vertex -15.0674 46.8315 -5.005
      vertex -19.5 49.5 -5.005
      vertex 26 49.5 -5.005
    endloop
  endfacet
  facet normal -0 0 -1
    outer loop
      vertex 23.2002 1.75503 -5.005
      vertex 26 49.5 -5.005
      vertex 23.925 0.25 -5.005
    endloop
  endfacet
  facet normal 0 -0 -1
    outer loop
      vertex -19.5 -7.25 -5.005
      vertex -19.5 49.5 -5.005
      vertex -16.6326 44.6771 -5.005
    endloop
  endfacet
  facet normal 0 0 -1
    outer loop
      vertex 23.2002 -1.25503 -5.005
      vertex 26 -7.25 -5.005
      vertex 21.5716 -1.62674 -5.005
    endloop
  endfacet
  facet normal 0 0 -1
    outer loop
      vertex 21.5716 -1.62674 -5.005
      vertex 26 -7.25 -5.005
      vertex 20.2656 -0.585226 -5.005
    endloop
  endfacet
  facet normal -0 0 -1
    outer loop
      vertex -15.0674 46.8315 -5.005
      vertex 26 49.5 -5.005
      vertex -7.56738 46.8315 -5.005
    endloop
  endfacet
  facet normal 0 -0 -1
    outer loop
      vertex 23.2002 1.75503 -5.005
      vertex -7.56738 44.1685 -5.005
      vertex 26 49.5 -5.005
    endloop
  endfacet
  facet normal 0 0 -1
    outer loop
      vertex -7.56738 44.1685 -5.005
      vertex -6.6 45.5 -5.005
      vertex 26 49.5 -5.005
    endloop
  endfacet
  facet normal 0 -0 -1
    outer loop
      vertex -6.6 45.5 -5.005
      vertex -7.56738 46.8315 -5.005
      vertex 26 49.5 -5.005
    endloop
  endfacet
  facet normal 0 -0 -1
    outer loop
      vertex -16.6326 46.3229 -5.005
      vertex -19.5 49.5 -5.005
      vertex -15.0674 46.8315 -5.005
    endloop
  endfacet
  facet normal 0 -0 -1
    outer loop
      vertex 20.2656 1.08523 -5.005
      vertex -7.56738 44.1685 -5.005
      vertex 21.5716 2.12674 -5.005
    endloop
  endfacet
  facet normal 0 0 -1
    outer loop
      vertex 20.2656 -0.585226 -5.005
      vertex -16.6326 44.6771 -5.005
      vertex -15.0674 44.1685 -5.005
    endloop
  endfacet
  facet normal 0 0 -1
    outer loop
      vertex -19.5 -7.25 -5.005
      vertex -16.6326 44.6771 -5.005
      vertex 20.2656 -0.585226 -5.005
    endloop
  endfacet
  facet normal -0 0 -1
    outer loop
      vertex -19.5 -7.25 -5.005
      vertex 20.2656 -0.585226 -5.005
      vertex 26 -7.25 -5.005
    endloop
  endfacet
  facet normal 0 0 -1
    outer loop
      vertex 20.2656 -0.585226 -5.005
      vertex -15.0674 44.1685 -5.005
      vertex -7.56738 44.1685 -5.005
    endloop
  endfacet
  facet normal 0 0 -1
    outer loop
      vertex 26 -7.25 -5.005
      vertex 23.2002 -1.25503 -5.005
      vertex 23.925 0.25 -5.005
    endloop
  endfacet
  facet normal 0 0 -1
    outer loop
      vertex 26 -7.25 -5.005
      vertex 23.925 0.25 -5.005
      vertex 26 49.5 -5.005
    endloop
  endfacet
  facet normal -0 -0 -1
    outer loop
      vertex 21.5716 2.12674 -5.005
      vertex -7.56738 44.1685 -5.005
      vertex 23.2002 1.75503 -5.005
    endloop
  endfacet
  facet normal 0 0 -1
    outer loop
      vertex 20.2656 -0.585226 -5.005
      vertex -7.56738 44.1685 -5.005
      vertex 20.2656 1.08523 -5.005
    endloop
  endfacet
  facet normal 0 0 -1
    outer loop
      vertex -16.6326 44.6771 -5.005
      vertex -19.5 49.5 -5.005
      vertex -16.6326 46.3229 -5.005
    endloop
  endfacet
  facet normal 0 1 0
    outer loop
      vertex -19.5 49.5 -5.005
      vertex -19.5 49.5 -2.495
      vertex 26 49.5 -5.005
    endloop
  endfacet
  facet normal 0 1 0
    outer loop
      vertex 26 49.5 -5.005
      vertex -19.5 49.5 -2.495
      vertex 26 49.5 -2.495
    endloop
  endfacet
  facet normal 0 -0 1
    outer loop
      vertex -19.5 49.5 -2.495
      vertex -19.5 -7.25 -2.495
      vertex -14 -7.25 -2.495
    endloop
  endfacet
  facet normal -0 -0 1
    outer loop
      vertex -16.6326 44.6771 -2.495
      vertex -19.5 49.5 -2.495
      vertex -14 34.75 -2.495
    endloop
  endfacet
  facet normal -0 0 1
    outer loop
      vertex -14 34.75 -2.495
      vertex -19.5 49.5 -2.495
      vertex -14 -7.25 -2.495
    endloop
  endfacet
  facet normal -0 0 1
    outer loop
      vertex 20.2656 -0.585226 -2.495
      vertex 4 34.75 -2.495
      vertex 4 -7.25 -2.495
    endloop
  endfacet
  facet normal -0 0 1
    outer loop
      vertex 4 34.75 -2.495
      vertex -16.6326 44.6771 -2.495
      vertex -14 34.75 -2.495
    endloop
  endfacet
  facet normal -0 0 1
    outer loop
      vertex -16.6326 46.3229 -2.495
      vertex -19.5 49.5 -2.495
      vertex -16.6326 44.6771 -2.495
    endloop
  endfacet
  facet normal 0 -0 1
    outer loop
      vertex 23.2002 -1.25503 -2.495
      vertex 21.5716 -1.62674 -2.495
      vertex 26 -7.25 -2.495
    endloop
  endfacet
  facet normal 0 0 1
    outer loop
      vertex 26 49.5 -2.495
      vertex -19.5 49.5 -2.495
      vertex -15.0674 46.8315 -2.495
    endloop
  endfacet
  facet normal 0 0 1
    outer loop
      vertex 26 49.5 -2.495
      vertex -7.56738 46.8315 -2.495
      vertex 4 34.75 -2.495
    endloop
  endfacet
  facet normal 0 0 1
    outer loop
      vertex 26 49.5 -2.495
      vertex -15.0674 46.8315 -2.495
      vertex -7.56738 46.8315 -2.495
    endloop
  endfacet
  facet normal 0 0 1
    outer loop
      vertex -7.56738 46.8315 -2.495
      vertex -6.6 45.5 -2.495
      vertex 4 34.75 -2.495
    endloop
  endfacet
  facet normal 0 -0 1
    outer loop
      vertex -6.6 45.5 -2.495
      vertex -7.56738 44.1685 -2.495
      vertex 4 34.75 -2.495
    endloop
  endfacet
  facet normal 0 0 1
    outer loop
      vertex 4 34.75 -2.495
      vertex -15.0674 44.1685 -2.495
      vertex -16.6326 44.6771 -2.495
    endloop
  endfacet
  facet normal -0 0 1
    outer loop
      vertex 26 -7.25 -2.495
      vertex 20.2656 -0.585226 -2.495
      vertex 4 -7.25 -2.495
    endloop
  endfacet
  facet normal -0 0 1
    outer loop
      vertex 20.2656 1.08523 -2.495
      vertex 4 34.75 -2.495
      vertex 20.2656 -0.585226 -2.495
    endloop
  endfacet
  facet normal 0 -0 1
    outer loop
      vertex 23.925 0.25 -2.495
      vertex 23.2002 -1.25503 -2.495
      vertex 26 -7.25 -2.495
    endloop
  endfacet
  facet normal 0 0 1
    outer loop
      vertex 26 49.5 -2.495
      vertex 4 34.75 -2.495
      vertex 21.5716 2.12674 -2.495
    endloop
  endfacet
  facet normal 0 0 1
    outer loop
      vertex 26 49.5 -2.495
      vertex 21.5716 2.12674 -2.495
      vertex 23.2002 1.75503 -2.495
    endloop
  endfacet
  facet normal 0 0 1
    outer loop
      vertex 26 49.5 -2.495
      vertex 23.925 0.25 -2.495
      vertex 26 -7.25 -2.495
    endloop
  endfacet
  facet normal 0 0 1
    outer loop
      vertex 26 49.5 -2.495
      vertex 23.2002 1.75503 -2.495
      vertex 23.925 0.25 -2.495
    endloop
  endfacet
  facet normal 0 0 1
    outer loop
      vertex 26 -7.25 -2.495
      vertex 21.5716 -1.62674 -2.495
      vertex 20.2656 -0.585226 -2.495
    endloop
  endfacet
  facet normal 0 0 1
    outer loop
      vertex 20.2656 1.08523 -2.495
      vertex 21.5716 2.12674 -2.495
      vertex 4 34.75 -2.495
    endloop
  endfacet
  facet normal 0 0 1
    outer loop
      vertex -16.6326 46.3229 -2.495
      vertex -15.0674 46.8315 -2.495
      vertex -19.5 49.5 -2.495
    endloop
  endfacet
  facet normal 0 -0 1
    outer loop
      vertex -7.56738 44.1685 -2.495
      vertex -15.0674 44.1685 -2.495
      vertex 4 34.75 -2.495
    endloop
  endfacet
  facet normal -1 -0 -0
    outer loop
      vertex -14 -7.25 -2.495
      vertex -14 -7.25 0.005
      vertex -14 34.75 -2.495
    endloop
  endfacet
  facet normal -1 0 0
    outer loop
      vertex -14 34.75 -2.495
      vertex -14 -7.25 0.005
      vertex -14 34.75 0.005
    endloop
  endfacet
  facet normal 0 -0 1
    outer loop
      vertex -5.25 -5.25 0.005
      vertex -14 -7.25 0.005
      vertex 4 -7.25 0.005
    endloop
  endfacet
  facet normal 0 0 1
    outer loop
      vertex -9.25 30 0.005
      vertex 1 0 0.005
      vertex 4 -7.25 0.005
    endloop
  endfacet
  facet normal 0 0 1
    outer loop
      vertex -5.25 -5.25 0.005
      vertex -5.25 2.25 0.005
      vertex -12 2.25 0.005
    endloop
  endfacet
  facet normal 0 -0 1
    outer loop
      vertex -14 34.75 0.005
      vertex -14 -7.25 0.005
      vertex -12 2.25 0.005
    endloop
  endfacet
  facet normal 0 0 1
    outer loop
      vertex 4 34.75 0.005
      vertex -14 34.75 0.005
      vertex -12 32.5 0.005
    endloop
  endfacet
  facet normal 0 0 1
    outer loop
      vertex 4 34.75 0.005
      vertex 2 32.5 0.005
      vertex 4 -7.25 0.005
    endloop
  endfacet
  facet normal 0 0 1
    outer loop
      vertex 4 34.75 0.005
      vertex -12 32.5 0.005
      vertex 2 32.5 0.005
    endloop
  endfacet
  facet normal 0 -0 1
    outer loop
      vertex 2 32.5 0.005
      vertex 2 26 0.005
      vertex 4 -7.25 0.005
    endloop
  endfacet
  facet normal 0 -0 1
    outer loop
      vertex 2 26 0.005
      vertex 1.5 26 0.005
      vertex 4 -7.25 0.005
    endloop
  endfacet
  facet normal 0 -0 1
    outer loop
      vertex -0.25 30 0.005
      vertex -9.25 30 0.005
      vertex 1.5 26 0.005
    endloop
  endfacet
  facet normal -0 -0 1
    outer loop
      vertex 1.5 26 0.005
      vertex -9.25 30 0.005
      vertex 4 -7.25 0.005
    endloop
  endfacet
  facet normal 0 -0 1
    outer loop
      vertex -9.25 30 0.005
      vertex -9.25 4.75 0.005
      vertex -3 4.75 0.005
    endloop
  endfacet
  facet normal 0 -0 1
    outer loop
      vertex 1 -5.25 0.005
      vertex -5.25 -5.25 0.005
      vertex 4 -7.25 0.005
    endloop
  endfacet
  facet normal 0 0 1
    outer loop
      vertex -9.25 30 0.005
      vertex 0 0 0.005
      vertex 1 0 0.005
    endloop
  endfacet
  facet normal 0 0 1
    outer loop
      vertex -9.25 30 0.005
      vertex -3 4.75 0.005
      vertex 0 0 0.005
    endloop
  endfacet
  facet normal 0 -0 1
    outer loop
      vertex -3 4.75 0.005
      vertex -3 -3 0.005
      vertex 0 -3 0.005
    endloop
  endfacet
  facet normal 0 -0 1
    outer loop
      vertex -12 2.25 0.005
      vertex -14 -7.25 0.005
      vertex -5.25 -5.25 0.005
    endloop
  endfacet
  facet normal 0 -0 1
    outer loop
      vertex 1 0 0.005
      vertex 1 -5.25 0.005
      vertex 4 -7.25 0.005
    endloop
  endfacet
  facet normal 0 0 1
    outer loop
      vertex 0 -3 0.005
      vertex 0 0 0.005
      vertex -3 4.75 0.005
    endloop
  endfacet
  facet normal 0 0 1
    outer loop
      vertex -12 2.25 0.005
      vertex -12 32.5 0.005
      vertex -14 34.75 0.005
    endloop
  endfacet
  facet normal 1 0 -0
    outer loop
      vertex 4 -7.25 0.005
      vertex 4 -7.25 -2.495
      vertex 4 34.75 -2.495
    endloop
  endfacet
  facet normal 1 0 0
    outer loop
      vertex 4 34.75 0.005
      vertex 4 -7.25 0.005
      vertex 4 34.75 -2.495
    endloop
  endfacet
  facet normal 1 0 -0
    outer loop
      vertex 26 -7.25 -2.495
      vertex 26 -7.25 -5.005
      vertex 26 49.5 -5.005
    endloop
  endfacet
  facet normal 1 0 0
    outer loop
      vertex 26 49.5 -2.495
      vertex 26 -7.25 -2.495
      vertex 26 49.5 -5.005
    endloop
  endfacet
  facet normal 1 0 0
    outer loop
      vertex -16.6326 46.3229 -5.005
      vertex -16.6326 46.3229 -2.495
      vertex -16.6326 44.6771 -2.495
    endloop
  endfacet
  facet normal 1 0 0
    outer loop
      vertex -16.6326 44.6771 -5.005
      vertex -16.6326 46.3229 -5.005
      vertex -16.6326 44.6771 -2.495
    endloop
  endfacet
  facet normal 0.309017 -0.951056 0
    outer loop
      vertex -15.0674 46.8315 -5.005
      vertex -15.0674 46.8315 -2.495
      vertex -16.6326 46.3229 -2.495
    endloop
  endfacet
  facet normal 0.309017 -0.951056 0
    outer loop
      vertex -16.6326 46.3229 -5.005
      vertex -15.0674 46.8315 -5.005
      vertex -16.6326 46.3229 -2.495
    endloop
  endfacet
  facet normal 0 -1 0
    outer loop
      vertex -7.56738 46.8315 -5.005
      vertex -7.56738 46.8315 -2.495
      vertex -15.0674 46.8315 -2.495
    endloop
  endfacet
  facet normal -0 -1 -0
    outer loop
      vertex -15.0674 46.8315 -5.005
      vertex -7.56738 46.8315 -5.005
      vertex -15.0674 46.8315 -2.495
    endloop
  endfacet
  facet normal -0.809017 -0.587785 0
    outer loop
      vertex -6.6 45.5 -2.495
      vertex -7.56738 46.8315 -2.495
      vertex -6.6 45.5 -5.005
    endloop
  endfacet
  facet normal -0.809017 -0.587785 0
    outer loop
      vertex -6.6 45.5 -5.005
      vertex -7.56738 46.8315 -2.495
      vertex -7.56738 46.8315 -5.005
    endloop
  endfacet
  facet normal -0.809017 0.587785 0
    outer loop
      vertex -6.6 45.5 -2.495
      vertex -6.6 45.5 -5.005
      vertex -7.56738 44.1685 -2.495
    endloop
  endfacet
  facet normal -0.809017 0.587785 0
    outer loop
      vertex -7.56738 44.1685 -2.495
      vertex -6.6 45.5 -5.005
      vertex -7.56738 44.1685 -5.005
    endloop
  endfacet
  facet normal 0 1 0
    outer loop
      vertex -7.56738 44.1685 -2.495
      vertex -7.56738 44.1685 -5.005
      vertex -15.0674 44.1685 -2.495
    endloop
  endfacet
  facet normal 0 1 -0
    outer loop
      vertex -15.0674 44.1685 -2.495
      vertex -7.56738 44.1685 -5.005
      vertex -15.0674 44.1685 -5.005
    endloop
  endfacet
  facet normal 0.309017 0.951056 -0
    outer loop
      vertex -15.0674 44.1685 -2.495
      vertex -15.0674 44.1685 -5.005
      vertex -16.6326 44.6771 -2.495
    endloop
  endfacet
  facet normal 0.309017 0.951056 -0
    outer loop
      vertex -16.6326 44.6771 -2.495
      vertex -15.0674 44.1685 -5.005
      vertex -16.6326 44.6771 -5.005
    endloop
  endfacet
  facet normal 0.62349 -0.781831 0
    outer loop
      vertex 21.5716 2.12674 -5.005
      vertex 21.5716 2.12674 -2.495
      vertex 20.2656 1.08523 -2.495
    endloop
  endfacet
  facet normal 0.62349 -0.781831 0
    outer loop
      vertex 20.2656 1.08523 -5.005
      vertex 21.5716 2.12674 -5.005
      vertex 20.2656 1.08523 -2.495
    endloop
  endfacet
  facet normal 1 0 0
    outer loop
      vertex 20.2656 1.08523 -5.005
      vertex 20.2656 1.08523 -2.495
      vertex 20.2656 -0.585226 -2.495
    endloop
  endfacet
  facet normal 1 0 0
    outer loop
      vertex 20.2656 -0.585226 -5.005
      vertex 20.2656 1.08523 -5.005
      vertex 20.2656 -0.585226 -2.495
    endloop
  endfacet
  facet normal -0.222521 -0.974928 -0
    outer loop
      vertex 23.2002 1.75503 -5.005
      vertex 23.2002 1.75503 -2.495
      vertex 21.5716 2.12674 -2.495
    endloop
  endfacet
  facet normal -0.222521 -0.974928 -0
    outer loop
      vertex 21.5716 2.12674 -5.005
      vertex 23.2002 1.75503 -5.005
      vertex 21.5716 2.12674 -2.495
    endloop
  endfacet
  facet normal -0.900969 -0.433884 0
    outer loop
      vertex 23.925 0.25 -2.495
      vertex 23.2002 1.75503 -2.495
      vertex 23.925 0.25 -5.005
    endloop
  endfacet
  facet normal -0.900969 -0.433884 0
    outer loop
      vertex 23.925 0.25 -5.005
      vertex 23.2002 1.75503 -2.495
      vertex 23.2002 1.75503 -5.005
    endloop
  endfacet
  facet normal -0.900969 0.433884 0
    outer loop
      vertex 23.925 0.25 -2.495
      vertex 23.925 0.25 -5.005
      vertex 23.2002 -1.25503 -2.495
    endloop
  endfacet
  facet normal -0.900969 0.433884 0
    outer loop
      vertex 23.2002 -1.25503 -2.495
      vertex 23.925 0.25 -5.005
      vertex 23.2002 -1.25503 -5.005
    endloop
  endfacet
  facet normal -0.222521 0.974928 0
    outer loop
      vertex 23.2002 -1.25503 -2.495
      vertex 23.2002 -1.25503 -5.005
      vertex 21.5716 -1.62674 -2.495
    endloop
  endfacet
  facet normal -0.222521 0.974928 0
    outer loop
      vertex 21.5716 -1.62674 -2.495
      vertex 23.2002 -1.25503 -5.005
      vertex 21.5716 -1.62674 -5.005
    endloop
  endfacet
  facet normal 0.62349 0.781831 -0
    outer loop
      vertex 21.5716 -1.62674 -2.495
      vertex 21.5716 -1.62674 -5.005
      vertex 20.2656 -0.585226 -2.495
    endloop
  endfacet
  facet normal 0.62349 0.781831 -0
    outer loop
      vertex 20.2656 -0.585226 -2.495
      vertex 21.5716 -1.62674 -5.005
      vertex 20.2656 -0.585226 -5.005
    endloop
  endfacet
  facet normal 0 1 0
    outer loop
      vertex -14 34.75 -2.495
      vertex -14 34.75 0.005
      vertex 4 34.75 -2.495
    endloop
  endfacet
  facet normal 0 1 0
    outer loop
      vertex 4 34.75 -2.495
      vertex -14 34.75 0.005
      vertex 4 34.75 0.005
    endloop
  endfacet
  facet normal 0 -1 0
    outer loop
      vertex -12 2.25 60
      vertex -12 2.25 0.005
      vertex -5.25 2.25 0.005
    endloop
  endfacet
  facet normal 0 -1 0
    outer loop
      vertex -5.25 2.25 60
      vertex -12 2.25 60
      vertex -5.25 2.25 0.005
    endloop
  endfacet
  facet normal -1 -0 -0
    outer loop
      vertex -12 2.25 0.005
      vertex -12 2.25 60
      vertex -12 32.5 0.005
    endloop
  endfacet
  facet normal -1 0 0
    outer loop
      vertex -12 32.5 0.005
      vertex -12 2.25 60
      vertex -12 32.5 60
    endloop
  endfacet
  facet normal -1 -0 -0
    outer loop
      vertex -5.25 -5.25 0.005
      vertex -5.25 -5.25 60
      vertex -5.25 2.25 0.005
    endloop
  endfacet
  facet normal -1 0 0
    outer loop
      vertex -5.25 2.25 0.005
      vertex -5.25 -5.25 60
      vertex -5.25 2.25 60
    endloop
  endfacet
  facet normal 0 -1 0
    outer loop
      vertex -5.25 -5.25 60
      vertex -5.25 -5.25 0.005
      vertex 1 -5.25 0.005
    endloop
  endfacet
  facet normal 0 -1 0
    outer loop
      vertex 1 -5.25 60
      vertex -5.25 -5.25 60
      vertex 1 -5.25 0.005
    endloop
  endfacet
  facet normal 1 0 -0
    outer loop
      vertex 1 -5.25 60
      vertex 1 -5.25 0.005
      vertex 1 0 0.005
    endloop
  endfacet
  facet normal 1 0 0
    outer loop
      vertex 1 0 60
      vertex 1 -5.25 60
      vertex 1 0 0.005
    endloop
  endfacet
  facet normal 0 1 0
    outer loop
      vertex 0 0 0.005
      vertex 0 0 55
      vertex 1 0 0.005
    endloop
  endfacet
  facet normal 0 1 0
    outer loop
      vertex 1 0 0.005
      vertex 0 0 55
      vertex 0.25 0 60
    endloop
  endfacet
  facet normal 0 1 0
    outer loop
      vertex 1 0 0.005
      vertex 0.25 0 60
      vertex 1 0 60
    endloop
  endfacet
  facet normal -1 -0 -0
    outer loop
      vertex 0 -3 0.005
      vertex 0 -3 55
      vertex 0 0 0.005
    endloop
  endfacet
  facet normal -1 0 0
    outer loop
      vertex 0 0 0.005
      vertex 0 -3 55
      vertex 0 0 55
    endloop
  endfacet
  facet normal 0 1 0
    outer loop
      vertex -3 -3 0.005
      vertex -3 -3 55
      vertex 0 -3 0.005
    endloop
  endfacet
  facet normal 0 1 0
    outer loop
      vertex 0 -3 0.005
      vertex -3 -3 55
      vertex 0 -3 55
    endloop
  endfacet
  facet normal 1 0 -0
    outer loop
      vertex -3 -3 55
      vertex -3 -3 0.005
      vertex -3 4.75 0.005
    endloop
  endfacet
  facet normal 1 0 0
    outer loop
      vertex -3 4.75 55
      vertex -3 -3 55
      vertex -3 4.75 0.005
    endloop
  endfacet
  facet normal 0 1 0
    outer loop
      vertex -9.25 4.75 0.005
      vertex -9.25 4.75 55
      vertex -3 4.75 0.005
    endloop
  endfacet
  facet normal 0 1 0
    outer loop
      vertex -3 4.75 0.005
      vertex -9.25 4.75 55
      vertex -3 4.75 55
    endloop
  endfacet
  facet normal 1 0 -0
    outer loop
      vertex -9.25 4.75 55
      vertex -9.25 4.75 0.005
      vertex -9.25 30 0.005
    endloop
  endfacet
  facet normal 1 0 0
    outer loop
      vertex -9.25 30 55
      vertex -9.25 4.75 55
      vertex -9.25 30 0.005
    endloop
  endfacet
  facet normal 0 -1 0
    outer loop
      vertex -9.25 30 55
      vertex -9.25 30 0.005
      vertex -0.25 30 0.005
    endloop
  endfacet
  facet normal 0 -1 0
    outer loop
      vertex -0.25 30 55
      vertex -9.25 30 55
      vertex -0.25 30 0.005
    endloop
  endfacet
  facet normal -0.916157 -0.400819 -0
    outer loop
      vertex -0.25 30 0.005
      vertex 1.5 26 0.005
      vertex -0.25 30 55
    endloop
  endfacet
  facet normal -0.916157 -0.400819 0
    outer loop
      vertex -0.25 30 55
      vertex 1.5 26 0.005
      vertex 1.5 26 55
    endloop
  endfacet
  facet normal 0 -1 0
    outer loop
      vertex 1.5 26 55
      vertex 1.5 26 0.005
      vertex 2 26 0.005
    endloop
  endfacet
  facet normal 0 -1 0
    outer loop
      vertex 2 26 55
      vertex 1.5 26 55
      vertex 2 26 0.005
    endloop
  endfacet
  facet normal 1 0 -0
    outer loop
      vertex 2 26 55
      vertex 2 26 0.005
      vertex 2 32.5 0.005
    endloop
  endfacet
  facet normal 1 0 -0
    outer loop
      vertex 2 27.625 60
      vertex 2 26 55
      vertex 2 32.5 60
    endloop
  endfacet
  facet normal 1 0 0
    outer loop
      vertex 2 32.5 60
      vertex 2 26 55
      vertex 2 32.5 0.005
    endloop
  endfacet
  facet normal 0 1 0
    outer loop
      vertex -12 32.5 0.005
      vertex -12 32.5 60
      vertex 2 32.5 0.005
    endloop
  endfacet
  facet normal 0 1 0
    outer loop
      vertex 2 32.5 0.005
      vertex -12 32.5 60
      vertex 2 32.5 60
    endloop
  endfacet
  facet normal 0 0 1
    outer loop
      vertex -9.9375 30.625 60
      vertex 0.3125 30.625 60
      vertex -12 32.5 60
    endloop
  endfacet
  facet normal 0 -0 1
    outer loop
      vertex -9.9375 4.125 60
      vertex -12 2.25 60
      vertex -5.25 2.25 60
    endloop
  endfacet
  facet normal 0 -0 1
    outer loop
      vertex 0.25 -3.5625 60
      vertex -3.5625 -3.5625 60
      vertex 1 -5.25 60
    endloop
  endfacet
  facet normal 0 0 1
    outer loop
      vertex 1 -5.25 60
      vertex 1 0 60
      vertex 0.25 0 60
    endloop
  endfacet
  facet normal 0 0 1
    outer loop
      vertex -3.5625 -3.5625 60
      vertex -3.5625 4.125 60
      vertex -5.25 2.25 60
    endloop
  endfacet
  facet normal 0 0 1
    outer loop
      vertex -3.5625 4.125 60
      vertex -9.9375 4.125 60
      vertex -5.25 2.25 60
    endloop
  endfacet
  facet normal 0 0 1
    outer loop
      vertex -5.25 -5.25 60
      vertex -3.5625 -3.5625 60
      vertex -5.25 2.25 60
    endloop
  endfacet
  facet normal 0 0 1
    outer loop
      vertex -5.25 -5.25 60
      vertex 1 -5.25 60
      vertex -3.5625 -3.5625 60
    endloop
  endfacet
  facet normal 0 -0 1
    outer loop
      vertex -12 32.5 60
      vertex -12 2.25 60
      vertex -9.9375 4.125 60
    endloop
  endfacet
  facet normal 0 0 1
    outer loop
      vertex 0.3125 30.625 60
      vertex 2 32.5 60
      vertex -12 32.5 60
    endloop
  endfacet
  facet normal 0 0 1
    outer loop
      vertex 2 27.625 60
      vertex 2 32.5 60
      vertex 0.3125 30.625 60
    endloop
  endfacet
  facet normal 0 -0 1
    outer loop
      vertex 0.25 0 60
      vertex 0.25 -3.5625 60
      vertex 1 -5.25 60
    endloop
  endfacet
  facet normal 0 0 1
    outer loop
      vertex -9.9375 4.125 60
      vertex -9.9375 30.625 60
      vertex -12 32.5 60
    endloop
  endfacet
  facet normal -0.998752 0 0.0499376
    outer loop
      vertex 0.25 0 60
      vertex 0 0 55
      vertex 0.25 -3.5625 60
    endloop
  endfacet
  facet normal -0.998752 0 0.0499376
    outer loop
      vertex 0.25 -3.5625 60
      vertex 0 0 55
      vertex 0 -3 55
    endloop
  endfacet
  facet normal -0 0.993731 0.111795
    outer loop
      vertex 0 -3 55
      vertex -3 -3 55
      vertex 0.25 -3.5625 60
    endloop
  endfacet
  facet normal -0 0.993731 0.111795
    outer loop
      vertex 0.25 -3.5625 60
      vertex -3 -3 55
      vertex -3.5625 -3.5625 60
    endloop
  endfacet
  facet normal 0.993731 0 0.111795
    outer loop
      vertex -3 -3 55
      vertex -3 4.75 55
      vertex -3.5625 4.125 60
    endloop
  endfacet
  facet normal 0.993731 0 0.111795
    outer loop
      vertex -3.5625 -3.5625 60
      vertex -3 -3 55
      vertex -3.5625 4.125 60
    endloop
  endfacet
  facet normal -0 0.992278 0.124035
    outer loop
      vertex -3 4.75 55
      vertex -9.25 4.75 55
      vertex -3.5625 4.125 60
    endloop
  endfacet
  facet normal -0 0.992278 0.124035
    outer loop
      vertex -3.5625 4.125 60
      vertex -9.25 4.75 55
      vertex -9.9375 4.125 60
    endloop
  endfacet
  facet normal 0.990679 0 0.136218
    outer loop
      vertex -9.25 4.75 55
      vertex -9.25 30 55
      vertex -9.9375 30.625 60
    endloop
  endfacet
  facet normal 0.990679 0 0.136218
    outer loop
      vertex -9.9375 4.125 60
      vertex -9.25 4.75 55
      vertex -9.9375 30.625 60
    endloop
  endfacet
  facet normal 0 -0.992278 0.124035
    outer loop
      vertex -9.25 30 55
      vertex -0.25 30 55
      vertex 0.3125 30.625 60
    endloop
  endfacet
  facet normal 0 -0.992278 0.124035
    outer loop
      vertex -9.9375 30.625 60
      vertex -9.25 30 55
      vertex 0.3125 30.625 60
    endloop
  endfacet
  facet normal -0.860718 -0.484154 0.15735
    outer loop
      vertex 2 27.625 60
      vertex 0.3125 30.625 60
      vertex 2 26 55
    endloop
  endfacet
  facet normal -0.860718 -0.484154 0.15735
    outer loop
      vertex 2 26 55
      vertex 0.3125 30.625 60
      vertex -0.25 30 55
    endloop
  endfacet
  facet normal 0 0 1
    outer loop
      vertex 1.5 26 55
      vertex 2 26 55
      vertex -0.25 30 55
    endloop
  endfacet
endsolid OpenSCAD_Model
